<mxfile host="app.diagrams.net" modified="2024-02-19T03:46:42.500Z" agent="Mozilla/5.0 (Windows NT 10.0; Win64; x64) AppleWebKit/537.36 (KHTML, like Gecko) Chrome/122.0.0.0 Safari/537.36 Edg/122.0.0.0" etag="i9ptfDbsJwrep7jVxvgw" version="23.1.5" type="github">
  <diagram name="Page-1" id="c7488fd3-1785-93aa-aadb-54a6760d102a">
    <mxGraphModel dx="1573" dy="702" grid="1" gridSize="10" guides="1" tooltips="1" connect="1" arrows="1" fold="1" page="1" pageScale="1" pageWidth="1100" pageHeight="850" background="none" math="0" shadow="0">
      <root>
        <mxCell id="0" />
        <mxCell id="1" parent="0" />
        <mxCell id="sKfR1x2a7DLGCwVxLPld-43" value="" style="edgeStyle=orthogonalEdgeStyle;rounded=0;orthogonalLoop=1;jettySize=auto;html=1;entryX=0;entryY=0.5;entryDx=0;entryDy=0;" edge="1" parent="1" source="sKfR1x2a7DLGCwVxLPld-41" target="sKfR1x2a7DLGCwVxLPld-42">
          <mxGeometry relative="1" as="geometry" />
        </mxCell>
        <mxCell id="sKfR1x2a7DLGCwVxLPld-48" style="edgeStyle=orthogonalEdgeStyle;rounded=0;orthogonalLoop=1;jettySize=auto;html=1;entryX=0;entryY=0.5;entryDx=0;entryDy=0;" edge="1" parent="1" source="sKfR1x2a7DLGCwVxLPld-41" target="sKfR1x2a7DLGCwVxLPld-44">
          <mxGeometry relative="1" as="geometry" />
        </mxCell>
        <mxCell id="sKfR1x2a7DLGCwVxLPld-49" style="edgeStyle=orthogonalEdgeStyle;rounded=0;orthogonalLoop=1;jettySize=auto;html=1;entryX=0;entryY=0.5;entryDx=0;entryDy=0;" edge="1" parent="1" source="sKfR1x2a7DLGCwVxLPld-41" target="sKfR1x2a7DLGCwVxLPld-46">
          <mxGeometry relative="1" as="geometry" />
        </mxCell>
        <mxCell id="sKfR1x2a7DLGCwVxLPld-41" value="End user &lt;br&gt;creates&lt;br&gt;a case" style="shape=step;perimeter=stepPerimeter;whiteSpace=wrap;html=1;fixedSize=1;align=center;" vertex="1" parent="1">
          <mxGeometry x="20" y="310" width="120" height="80" as="geometry" />
        </mxCell>
        <mxCell id="sKfR1x2a7DLGCwVxLPld-45" value="" style="edgeStyle=orthogonalEdgeStyle;rounded=0;orthogonalLoop=1;jettySize=auto;html=1;" edge="1" parent="1" source="sKfR1x2a7DLGCwVxLPld-42" target="sKfR1x2a7DLGCwVxLPld-44">
          <mxGeometry relative="1" as="geometry" />
        </mxCell>
        <mxCell id="sKfR1x2a7DLGCwVxLPld-51" style="edgeStyle=orthogonalEdgeStyle;rounded=0;orthogonalLoop=1;jettySize=auto;html=1;entryX=0.5;entryY=0;entryDx=0;entryDy=0;" edge="1" parent="1" source="sKfR1x2a7DLGCwVxLPld-42" target="sKfR1x2a7DLGCwVxLPld-50">
          <mxGeometry relative="1" as="geometry" />
        </mxCell>
        <mxCell id="sKfR1x2a7DLGCwVxLPld-42" value="PowerApps" style="rounded=1;whiteSpace=wrap;html=1;" vertex="1" parent="1">
          <mxGeometry x="220" y="180" width="120" height="60" as="geometry" />
        </mxCell>
        <mxCell id="sKfR1x2a7DLGCwVxLPld-47" value="" style="edgeStyle=orthogonalEdgeStyle;rounded=0;orthogonalLoop=1;jettySize=auto;html=1;" edge="1" parent="1" source="sKfR1x2a7DLGCwVxLPld-44" target="sKfR1x2a7DLGCwVxLPld-46">
          <mxGeometry relative="1" as="geometry" />
        </mxCell>
        <mxCell id="sKfR1x2a7DLGCwVxLPld-52" style="edgeStyle=orthogonalEdgeStyle;rounded=0;orthogonalLoop=1;jettySize=auto;html=1;" edge="1" parent="1" source="sKfR1x2a7DLGCwVxLPld-44" target="sKfR1x2a7DLGCwVxLPld-50">
          <mxGeometry relative="1" as="geometry" />
        </mxCell>
        <mxCell id="sKfR1x2a7DLGCwVxLPld-44" value="PowerPage" style="rounded=1;whiteSpace=wrap;html=1;" vertex="1" parent="1">
          <mxGeometry x="220" y="320" width="120" height="60" as="geometry" />
        </mxCell>
        <mxCell id="sKfR1x2a7DLGCwVxLPld-53" style="edgeStyle=orthogonalEdgeStyle;rounded=0;orthogonalLoop=1;jettySize=auto;html=1;entryX=0.5;entryY=1;entryDx=0;entryDy=0;" edge="1" parent="1" source="sKfR1x2a7DLGCwVxLPld-46" target="sKfR1x2a7DLGCwVxLPld-50">
          <mxGeometry relative="1" as="geometry" />
        </mxCell>
        <mxCell id="sKfR1x2a7DLGCwVxLPld-46" value="SharePoint" style="rounded=1;whiteSpace=wrap;html=1;" vertex="1" parent="1">
          <mxGeometry x="220" y="460" width="120" height="60" as="geometry" />
        </mxCell>
        <mxCell id="sKfR1x2a7DLGCwVxLPld-56" value="" style="edgeStyle=orthogonalEdgeStyle;rounded=0;orthogonalLoop=1;jettySize=auto;html=1;" edge="1" parent="1" source="sKfR1x2a7DLGCwVxLPld-50" target="sKfR1x2a7DLGCwVxLPld-55">
          <mxGeometry relative="1" as="geometry" />
        </mxCell>
        <mxCell id="sKfR1x2a7DLGCwVxLPld-50" value="The Case" style="ellipse;whiteSpace=wrap;html=1;" vertex="1" parent="1">
          <mxGeometry x="380" y="310" width="120" height="80" as="geometry" />
        </mxCell>
        <mxCell id="sKfR1x2a7DLGCwVxLPld-62" value="" style="edgeStyle=orthogonalEdgeStyle;rounded=0;orthogonalLoop=1;jettySize=auto;html=1;entryX=0;entryY=0.5;entryDx=0;entryDy=0;" edge="1" parent="1" source="sKfR1x2a7DLGCwVxLPld-55" target="sKfR1x2a7DLGCwVxLPld-61">
          <mxGeometry relative="1" as="geometry">
            <Array as="points">
              <mxPoint x="680" y="350" />
              <mxPoint x="680" y="240" />
            </Array>
          </mxGeometry>
        </mxCell>
        <mxCell id="sKfR1x2a7DLGCwVxLPld-66" value="" style="edgeStyle=orthogonalEdgeStyle;rounded=0;orthogonalLoop=1;jettySize=auto;html=1;exitX=1;exitY=0.5;exitDx=0;exitDy=0;" edge="1" parent="1" source="sKfR1x2a7DLGCwVxLPld-61" target="sKfR1x2a7DLGCwVxLPld-65">
          <mxGeometry relative="1" as="geometry" />
        </mxCell>
        <mxCell id="sKfR1x2a7DLGCwVxLPld-55" value="PowerAutomate" style="rounded=1;whiteSpace=wrap;html=1;" vertex="1" parent="1">
          <mxGeometry x="540" y="320" width="120" height="60" as="geometry" />
        </mxCell>
        <mxCell id="sKfR1x2a7DLGCwVxLPld-63" style="edgeStyle=orthogonalEdgeStyle;rounded=0;orthogonalLoop=1;jettySize=auto;html=1;entryX=0.5;entryY=0;entryDx=0;entryDy=0;" edge="1" parent="1" source="sKfR1x2a7DLGCwVxLPld-61" target="sKfR1x2a7DLGCwVxLPld-41">
          <mxGeometry relative="1" as="geometry">
            <mxPoint x="760" y="310" as="sourcePoint" />
            <Array as="points">
              <mxPoint x="80" y="150" />
            </Array>
          </mxGeometry>
        </mxCell>
        <mxCell id="sKfR1x2a7DLGCwVxLPld-61" value="Assigns &lt;br&gt;a reference&lt;br&gt;&amp;nbsp;number" style="shape=step;perimeter=stepPerimeter;whiteSpace=wrap;html=1;fixedSize=1;rounded=1;" vertex="1" parent="1">
          <mxGeometry x="720" y="200" width="120" height="80" as="geometry" />
        </mxCell>
        <mxCell id="sKfR1x2a7DLGCwVxLPld-68" value="" style="edgeStyle=orthogonalEdgeStyle;rounded=0;orthogonalLoop=1;jettySize=auto;html=1;" edge="1" parent="1" source="sKfR1x2a7DLGCwVxLPld-65" target="sKfR1x2a7DLGCwVxLPld-67">
          <mxGeometry relative="1" as="geometry" />
        </mxCell>
        <mxCell id="sKfR1x2a7DLGCwVxLPld-77" value="" style="edgeStyle=orthogonalEdgeStyle;rounded=0;orthogonalLoop=1;jettySize=auto;html=1;" edge="1" parent="1" source="sKfR1x2a7DLGCwVxLPld-65" target="sKfR1x2a7DLGCwVxLPld-76">
          <mxGeometry relative="1" as="geometry" />
        </mxCell>
        <mxCell id="sKfR1x2a7DLGCwVxLPld-65" value="Analyze and&lt;br&gt;sorts data" style="shape=step;perimeter=stepPerimeter;whiteSpace=wrap;html=1;fixedSize=1;rounded=1;" vertex="1" parent="1">
          <mxGeometry x="880" y="200" width="120" height="80" as="geometry" />
        </mxCell>
        <mxCell id="sKfR1x2a7DLGCwVxLPld-70" value="" style="edgeStyle=orthogonalEdgeStyle;rounded=0;orthogonalLoop=1;jettySize=auto;html=1;" edge="1" parent="1" source="sKfR1x2a7DLGCwVxLPld-67" target="sKfR1x2a7DLGCwVxLPld-69">
          <mxGeometry relative="1" as="geometry" />
        </mxCell>
        <mxCell id="sKfR1x2a7DLGCwVxLPld-67" value="Distribute&lt;br&gt;&amp;nbsp;to &lt;br&gt;team &lt;br&gt;members" style="shape=step;perimeter=stepPerimeter;whiteSpace=wrap;html=1;fixedSize=1;rounded=1;" vertex="1" parent="1">
          <mxGeometry x="1040" y="200" width="120" height="80" as="geometry" />
        </mxCell>
        <mxCell id="sKfR1x2a7DLGCwVxLPld-72" value="" style="edgeStyle=orthogonalEdgeStyle;rounded=0;orthogonalLoop=1;jettySize=auto;html=1;" edge="1" parent="1" source="sKfR1x2a7DLGCwVxLPld-69" target="sKfR1x2a7DLGCwVxLPld-71">
          <mxGeometry relative="1" as="geometry" />
        </mxCell>
        <mxCell id="sKfR1x2a7DLGCwVxLPld-69" value="Send&lt;br&gt;&amp;nbsp; &amp;nbsp;communication &lt;br&gt;to submitter" style="shape=step;perimeter=stepPerimeter;whiteSpace=wrap;html=1;fixedSize=1;rounded=1;" vertex="1" parent="1">
          <mxGeometry x="1200" y="200" width="120" height="80" as="geometry" />
        </mxCell>
        <mxCell id="sKfR1x2a7DLGCwVxLPld-73" style="edgeStyle=orthogonalEdgeStyle;rounded=0;orthogonalLoop=1;jettySize=auto;html=1;entryX=0.5;entryY=0;entryDx=0;entryDy=0;" edge="1" parent="1" source="sKfR1x2a7DLGCwVxLPld-71" target="sKfR1x2a7DLGCwVxLPld-42">
          <mxGeometry relative="1" as="geometry">
            <Array as="points">
              <mxPoint x="1430" y="90" />
              <mxPoint x="280" y="90" />
            </Array>
          </mxGeometry>
        </mxCell>
        <mxCell id="sKfR1x2a7DLGCwVxLPld-74" style="edgeStyle=orthogonalEdgeStyle;rounded=0;orthogonalLoop=1;jettySize=auto;html=1;entryX=0.5;entryY=1;entryDx=0;entryDy=0;" edge="1" parent="1" source="sKfR1x2a7DLGCwVxLPld-71" target="sKfR1x2a7DLGCwVxLPld-46">
          <mxGeometry relative="1" as="geometry">
            <Array as="points">
              <mxPoint x="1430" y="580" />
              <mxPoint x="280" y="580" />
            </Array>
          </mxGeometry>
        </mxCell>
        <mxCell id="sKfR1x2a7DLGCwVxLPld-71" value="Share status" style="shape=step;perimeter=stepPerimeter;whiteSpace=wrap;html=1;fixedSize=1;rounded=1;" vertex="1" parent="1">
          <mxGeometry x="1350" y="200" width="120" height="80" as="geometry" />
        </mxCell>
        <mxCell id="sKfR1x2a7DLGCwVxLPld-76" value="" style="ellipse;whiteSpace=wrap;html=1;rounded=1;" vertex="1" parent="1">
          <mxGeometry x="900" y="360" width="80" height="80" as="geometry" />
        </mxCell>
      </root>
    </mxGraphModel>
  </diagram>
</mxfile>
